<?xml version="1.0" encoding="UTF-8"?>
<!DOCTYPE svg PUBLIC "-//W3C//DTD SVG 1.1//EN" "http://www.w3.org/Graphics/SVG/1.1/DTD/svg11.dtd">
<!-- Creator: CorelDRAW X6 -->
<svg xmlns="http://www.w3.org/2000/svg" xml:space="preserve" width="736.830140404" height="135.716489482" version="1.1" style="shape-rendering:geometricPrecision; text-rendering:geometricPrecision; image-rendering:optimizeQuality; fill-rule:evenodd; clip-rule:evenodd"
viewBox="0 0 29000 5342"
 xmlns:xlink="http://www.w3.org/1999/xlink">
 <defs>
  <style type="text/css">
   <![CDATA[
    .fil1 {fill:#202D5C;fill-rule:nonzero}
    .fil0 {fill:#358E9D;fill-rule:nonzero}
    .fil2 {fill:#474343;fill-rule:nonzero}
   ]]>
  </style>
 </defs>
 <g id="Layer_x0020_1">
  <metadata id="CorelCorpID_0Corel-Layer"/>
  <g id="layer1">
   <g id="g7026">
    <g id="g6656">
     <path id="path6658" class="fil0" d="M24222 2222c-582,-304 -1065,-327 -1291,-327l-786 0 -42 -74 924 0c64,0 830,-11 1281,110 564,151 954,447 1030,497 76,49 1105,786 1105,786 0,0 -173,177 -342,177 -160,0 -333,-123 -333,-123 0,0 -551,-397 -635,-456 -84,-59 -519,-383 -912,-589z"/>
    </g>
    <g id="g6660">
     <path id="path6662" class="fil0" d="M24180 2803c389,258 618,447 693,501 74,54 420,301 420,301 0,0 159,124 354,124 148,0 330,-172 330,-172 0,0 -826,-583 -901,-635 -75,-53 -340,-262 -834,-392 -413,-109 -1000,-106 -1039,-106l-752 0 44 76c0,0 567,1 610,1 91,0 665,28 1075,300z"/>
    </g>
    <g id="g6664">
     <path id="path6666" class="fil0" d="M24307 1613c501,269 997,641 1089,708 93,67 846,606 846,606 0,0 176,119 337,119 157,0 335,-174 335,-174 0,0 -1202,-865 -1310,-941 -108,-76 -541,-431 -1236,-596 -544,-138 -1452,-122 -1515,-122l-1100 0 44 76 960 0c199,0 966,10 1549,324z"/>
    </g>
    <g id="g6668">
     <path id="path6670" class="fil1" d="M28663 1601c-148,-26 -343,-38 -343,-38l-266 76 -152 -127c0,0 317,25 405,38 76,0 51,-38 12,-115 -38,-76 -126,-76 -126,-76l-799 0c0,0 -143,1 -307,-37 -165,-38 -230,-162 -230,-162 -64,147 190,318 190,318l791 567c102,64 190,13 190,13 0,0 203,-102 317,-127 102,-25 418,-38 456,-25 89,13 190,102 190,102 51,-356 -178,-379 -329,-407z"/>
    </g>
    <g id="g6672">
     <path id="path6674" class="fil1" d="M24463 426c551,242 1339,831 1454,915 116,84 1251,897 1251,897 0,0 178,127 343,127 165,0 328,-166 328,-166l0 0c0,0 -1604,-1153 -1720,-1236 -116,-83 -648,-531 -1637,-792 -677,-179 -1841,-171 -1976,-171l-1452 0 45 77 1331 0c336,0 1305,28 2034,349z"/>
    </g>
    <g id="g6676">
     <path id="path6678" class="fil1" d="M24379 1018c-595,-298 -1329,-335 -1756,-335l-1175 0 -44 -76 1277 0c138,0 1105,-10 1745,135 738,168 1373,652 1439,698 63,44 1520,1089 1520,1089 0,0 -166,171 -345,171 -164,0 -342,-127 -342,-127 0,0 -948,-680 -1040,-745 -91,-65 -725,-534 -1279,-811z"/>
    </g>
    <g id="g6680">
     <path id="path6682" class="fil2" d="M3053 4395c0,0 -89,-20 -197,-20 -240,0 -418,106 -467,266 -11,30 -14,97 -14,131 0,203 142,317 316,317 33,0 88,-8 135,-26 125,-46 227,-130 227,-258l0 -410zm165 908c-16,0 -86,4 -115,-29 -28,-26 -28,-65 -28,-97l0 -102c-105,155 -282,260 -548,254 -418,-12 -510,-340 -510,-521 0,-64 6,-186 101,-316 148,-208 455,-276 729,-276 117,0 206,17 206,17l0 -183c0,-65 0,-176 -65,-254 -56,-65 -159,-114 -342,-114 -285,0 -472,161 -472,161l34 -216c0,0 193,-131 503,-131 259,0 438,71 543,177 121,126 151,242 151,474l0 1156 -187 0 0 0z"/>
    </g>
    <g id="g6684">
     <path id="path6686" class="fil2" d="M4370 3738c-300,57 -333,294 -333,461l0 1104 -352 0 0 -1578c0,-152 -100,-184 -100,-184l348 0c77,0 104,43 104,91l0 96c11,-32 137,-200 370,-208 76,-3 163,4 210,32l46 222c-52,-29 -150,-64 -294,-37z"/>
    </g>
    <g id="g6688">
     <path id="path6690" class="fil2" d="M6059 5303c-12,0 -85,4 -118,-29 -26,-26 -26,-74 -26,-97l0 -102c-95,155 -266,253 -501,253 -184,0 -309,-42 -418,-160 -115,-128 -144,-287 -144,-502l0 -967c0,-125 -108,-158 -105,-157l328 0c81,0 130,41 130,102l0 1062c0,314 93,403 313,403 181,0 378,-122 378,-309l0 -1257 349 0 0 1761 -185 0z"/>
    </g>
    <g id="g6692">
     <path id="path6694" class="fil2" d="M10878 5303c-73,0 -117,-31 -117,-120l0 -2078c0,-131 -101,-181 -101,-181l340 0c101,0 146,49 146,122l0 2258 -270 0z"/>
    </g>
    <g id="g6696">
     <path id="path6698" class="fil2" d="M15674 3688c-355,-4 -417,362 -417,752 0,485 122,717 417,717 260,0 382,-300 382,-717 0,-340 -32,-748 -382,-752m-7 1641c-576,-3 -783,-360 -783,-897 0,-490 207,-931 783,-928 583,4 761,444 761,928 0,495 -280,901 -761,897z"/>
    </g>
    <g id="g6700">
     <path id="path6702" class="fil2" d="M20929 5175c-125,106 -290,158 -474,160l-19 0c-276,0 -427,-74 -493,-112l-50 -209c0,0 241,158 492,158 242,0 380,-130 364,-345 -25,-343 -819,-261 -819,-829 0,-312 254,-476 566,-480l20 0c322,0 441,113 441,113l49 195c0,0 -138,-136 -414,-136 -297,0 -326,238 -320,304 19,171 149,212 382,314 243,104 435,238 435,496 0,164 -63,290 -158,371z"/>
    </g>
    <g id="g6704">
     <path id="path6706" class="fil2" d="M21405 5303c-65,0 -100,-34 -100,-92l0 -1511c0,-116 -110,-158 -110,-158l359 0c72,0 100,38 100,105l0 1656 -249 0z"/>
    </g>
    <g id="g6708">
     <path id="path6710" class="fil2" d="M11746 3542c67,0 101,32 101,91l0 138c96,-156 267,-255 501,-255 184,0 309,42 418,161 115,129 144,287 144,503l0 1124 -210 0c-90,0 -142,-61 -142,-145l0 -1017c0,-314 -94,-403 -312,-403 -181,0 -379,122 -379,310l0 1256 -349 0 0 -1609c0,-124 -97,-152 -97,-152l326 0z"/>
    </g>
    <g id="g6712">
     <path id="path6714" class="fil2" d="M22919 4395c0,0 -89,-20 -198,-20 -240,0 -418,106 -467,266 -11,30 -13,97 -13,131 0,203 141,317 316,317 33,0 89,-8 135,-26 125,-46 227,-130 227,-258l0 -410zm165 908c-17,0 -85,4 -116,-29 -25,-26 -25,-65 -25,-97l0 -102c-106,155 -284,260 -550,254 -418,-12 -509,-340 -509,-521 0,-64 5,-186 102,-316 147,-208 454,-276 727,-276 119,0 208,17 208,17l0 -183c0,-65 10,-168 -63,-255 -53,-67 -165,-115 -355,-113 -326,6 -461,161 -461,161l35 -216c0,0 192,-131 502,-131 259,0 437,71 542,177 122,126 151,242 151,474l0 1156 -187 0 0 0z"/>
    </g>
    <g id="g6716">
     <path id="path6718" class="fil2" d="M7606 4135c0,-100 -13,-246 -93,-330 -56,-59 -144,-100 -270,-100 -342,0 -381,455 -381,700l0 26c3,347 102,691 388,691 155,0 263,-60 356,-177l0 -811zm109 1168c-69,0 -93,-23 -93,-87l0 -87c-132,118 -260,196 -453,199l-7 0c-503,0 -678,-425 -678,-897 0,-354 136,-928 695,-928 335,0 428,202 428,202l0 -600c0,-126 -104,-191 -104,-191l273 0c105,0 183,73 183,152l0 2237 -243 0 0 0z"/>
    </g>
    <g id="g6720">
     <path id="path6722" class="fil2" d="M9250 4395c0,0 -88,-20 -197,-20 -240,0 -418,106 -467,266 -10,30 -14,97 -14,131 0,203 141,317 316,317 33,0 89,-8 135,-26 125,-46 227,-130 227,-258l0 -410zm164 908c-16,0 -86,4 -115,-29 -27,-26 -27,-65 -27,-97l0 -102c-105,155 -282,260 -549,254 -417,-12 -510,-340 -510,-521 0,-64 6,-186 102,-316 148,-208 454,-276 728,-276 119,0 207,17 207,17l0 -183c0,-65 0,-176 -65,-254 -55,-65 -159,-114 -341,-114 -285,0 -473,161 -473,161l35 -216c0,0 193,-131 502,-131 260,0 438,71 543,177 121,126 151,242 151,474l0 1156 -188 0 0 0z"/>
    </g>
    <g id="g6724">
     <path id="path6726" class="fil2" d="M14287 4135c0,-100 -13,-246 -92,-330 -55,-59 -144,-100 -270,-100 -342,0 -382,455 -382,700l0 26c4,347 102,691 389,691 156,0 262,-60 355,-177l0 -811zm110 1168c-69,0 -94,-23 -94,-87l0 -87c-131,118 -260,196 -454,199l-9 0c-500,0 -675,-425 -675,-897 0,-354 135,-928 694,-928 335,0 427,202 427,202l0 -600c0,-126 -103,-191 -103,-191l274 0c105,0 182,73 182,152l0 2237 -242 0 0 0z"/>
    </g>
    <g id="g6728">
     <path id="path6730" class="fil2" d="M16904 3542c68,0 102,32 102,91l0 138c95,-156 266,-255 501,-255 184,0 308,42 417,161 115,129 145,287 145,503l0 1124 -211 0c-89,0 -141,-61 -141,-145l0 -1017c0,-314 -94,-403 -313,-403 -181,0 -378,122 -378,310l0 1256 -350 0 0 -1609c0,-124 -97,-152 -97,-152l324 0z"/>
    </g>
    <g id="g6732">
     <path id="path6734" class="fil2" d="M1454 5315c-142,19 -227,26 -365,26 -362,0 -592,-109 -767,-280 -256,-254 -322,-676 -322,-940 0,-213 36,-631 378,-953 158,-148 404,-274 773,-274 329,0 487,94 487,94l61 218c-13,-6 -183,-104 -466,-104 -581,0 -825,399 -825,1020 0,939 457,1013 716,1013 184,0 258,-29 258,-29l0 -933 -202 0c-136,0 -194,21 -194,21l29 -189 746 0 0 1243c-122,32 -187,51 -309,67z"/>
    </g>
    <g id="g6736">
     <path id="path6738" class="fil2" d="M18683 4423c0,0 89,19 198,19 391,0 480,-192 498,-414 15,-198 -38,-395 -344,-357 -278,35 -352,216 -352,442 0,187 1,310 1,310m526 -926c417,30 510,341 510,521 0,65 -6,187 -102,316 -148,209 -454,276 -727,276 -119,0 -207,-16 -207,-16l0 163c0,308 164,391 435,387 303,-4 543,-191 543,-191l-34 216c0,0 -275,160 -585,160 -260,0 -456,-69 -560,-177 -129,-134 -151,-314 -151,-546l0 -385c0,-328 135,-777 878,-724z"/>
    </g>
   </g>
  </g>
 </g>
</svg>
