<?xml version="1.0" encoding="UTF-8" standalone="no"?>
<svg
   viewBox="0 0 487.76375 141.74016"
   version="1.1"
   id="svg960"
   sodipodi:docname="Logo MIND ID.svg"
   width="487.76373"
   height="141.74016"
   inkscape:version="1.1.1 (3bf5ae0d25, 2021-09-20)"
   xmlns:inkscape="http://www.inkscape.org/namespaces/inkscape"
   xmlns:sodipodi="http://sodipodi.sourceforge.net/DTD/sodipodi-0.dtd"
   xmlns="http://www.w3.org/2000/svg"
   xmlns:svg="http://www.w3.org/2000/svg">
  <sodipodi:namedview
     id="namedview962"
     pagecolor="#ffffff"
     bordercolor="#666666"
     borderopacity="1.0"
     inkscape:pageshadow="2"
     inkscape:pageopacity="0.0"
     inkscape:pagecheckerboard="0"
     showgrid="false"
     fit-margin-top="0"
     fit-margin-left="0"
     fit-margin-right="0"
     fit-margin-bottom="0"
     inkscape:zoom="1.0556956"
     inkscape:cx="243.915"
     inkscape:cy="70.569583"
     inkscape:window-width="1920"
     inkscape:window-height="1017"
     inkscape:window-x="-8"
     inkscape:window-y="-8"
     inkscape:window-maximized="1"
     inkscape:current-layer="svg960" />
  <defs
     id="defs896">
    <style
       id="style894">.cls-red{fill:#ed1c24;}.cls-blue{fill:#16325c;}</style>
  </defs>
  <g
     id="Layer_2"
     data-name="Layer 2"
     transform="translate(-0.06625667,0.01996903)">
    <g
       id="Artwork">
      <path
         class="cls-red"
         d="m 141.73,70.85 a 70.57,70.57 0 0 1 -14.26,42.64 l -8.21,-6.19 a 60.57,60.57 0 0 0 0.65,-72 l 8.33,-6 a 70.58,70.58 0 0 1 13.49,41.55 z M 109.4,84.21 a 40.46,40.46 0 0 1 -6,11.18 41.25,41.25 0 0 1 -11.68,10.49 40.79,40.79 0 1 1 -4.41,-72.32 39.93,39.93 0 0 1 9.15,5.59 40.49,40.49 0 0 1 7.37,7.77 39.73,39.73 0 0 1 5.53,10.59 h 10.09 A 50.39,50.39 0 0 0 70.87,20.44 V 10.27 a 60.31,60.31 0 0 1 24.5,5.16 L 99.52,6 a 70.87,70.87 0 1 0 -28.65,135.72 70.34,70.34 0 0 0 36.31,-10 l -5.28,-8.82 a 60,60 0 0 1 -31,8.56 v -10.19 a 50.17,50.17 0 0 0 33.68,-12.91 49.3,49.3 0 0 0 6.59,-7.18 50.3,50.3 0 0 0 8.35,-17 z M 116.46,66 a 4.82,4.82 0 1 0 4.82,4.82 4.81,4.81 0 0 0 -4.82,-4.82 z m -8,-49.31 a 4.82,4.82 0 1 0 6.74,-0.69 4.82,4.82 0 0 0 -6.77,0.73 z m 9.92,99.8 a 4.82,4.82 0 1 0 -0.37,6.8 4.81,4.81 0 0 0 0.34,-6.76 z"
         id="path898" />
      <path
         class="cls-blue"
         d="M 422.89,32.26 V 85 H 407.38 V 25.34 H 416 a 6.92,6.92 0 0 1 6.89,6.92 z"
         id="path900" />
      <path
         class="cls-blue"
         d="m 487.75,55.17 c 0,19.1 -10.48,29.84 -30.34,29.84 h -14 a 9.93,9.93 0 0 1 -9.92,-9.93 V 25.34 h 24 c 19.78,0 30.26,10.74 30.26,29.83 z m -15.68,0 c 0,-11.16 -5,-16.7 -15.43,-16.7 H 449 v 33.41 h 7.67 c 10.33,0 15.4,-5.54 15.4,-16.71 z"
         id="path902" />
      <path
         class="cls-blue"
         d="M 233,25.34 V 85 H 218.6 V 48.27 c -0.86,1.71 -1.79,3.32 -2.73,4.86 L 206,69.32 h -9.1 L 186.67,53.13 184.45,49.29 V 85 h -14.4 V 25.34 h 6.84 a 13.24,13.24 0 0 1 11.2,6.18 L 201.59,53 217.12,28.2 a 6,6 0 0 1 5.1,-2.82 z"
         id="path904" />
      <path
         class="cls-blue"
         d="M 259.12,32.26 V 85 H 243.61 V 25.34 h 8.59 a 6.92,6.92 0 0 1 6.92,6.92 z"
         id="path906" />
      <path
         class="cls-blue"
         d="M 321.26,25.34 V 85 h -6.52 a 13.23,13.23 0 0 1 -10.9,-5.73 L 284,50.49 c 0.08,2.38 0.08,4.85 0.08,7.33 V 85 h -14.4 V 25.34 h 6.51 a 13.23,13.23 0 0 1 10.9,5.73 l 19.84,28.79 c -0.09,-2.55 -0.09,-5.11 -0.09,-7.75 V 25.34 Z"
         id="path908" />
      <path
         class="cls-blue"
         d="m 386.12,55.17 c 0,19.1 -10.49,29.84 -30.35,29.84 h -14 a 9.94,9.94 0 0 1 -9.93,-9.93 V 25.34 h 23.95 c 19.84,0 30.33,10.74 30.33,29.83 z m -15.68,0 c 0,-11.16 -5,-16.7 -15.43,-16.7 h -7.67 V 71.88 H 355 c 10.41,0 15.44,-5.54 15.44,-16.71 z"
         id="path910" />
      <path
         class="cls-blue"
         d="m 177.55,113 h -0.09 l -4.89,-7.33 v 11.13 h -2.7 v -15.64 h 2.92 l 4.76,7.39 4.76,-7.39 h 2.93 v 15.64 h -2.75 v -11.22 z"
         id="path912" />
      <path
         class="cls-blue"
         d="m 190.34,103.19 v -2.57 h 2.9 v 2.57 z m 0.11,13.61 V 105 h 2.7 v 11.8 z"
         id="path914" />
      <path
         class="cls-blue"
         d="M 200.73,116.8 H 198 V 105 h 2.71 v 1.83 a 4.25,4.25 0 0 1 3.68,-2.07 c 2.66,0 4.2,1.78 4.2,4.53 v 7.51 h -2.7 v -6.7 c 0,-1.84 -0.92,-2.89 -2.52,-2.89 a 2.63,2.63 0 0 0 -2.66,2.93 z"
         id="path916" />
      <path
         class="cls-blue"
         d="m 213.26,103.19 v -2.57 h 2.91 v 2.57 z m 0.12,13.61 V 105 h 2.7 v 11.8 z"
         id="path918" />
      <path
         class="cls-blue"
         d="M 223.65,116.8 H 221 V 105 h 2.7 v 1.83 a 4.26,4.26 0 0 1 3.69,-2.07 c 2.66,0 4.2,1.78 4.2,4.53 v 7.51 h -2.7 v -6.7 c 0,-1.84 -0.92,-2.89 -2.53,-2.89 a 2.63,2.63 0 0 0 -2.66,2.93 z"
         id="path920" />
      <path
         class="cls-blue"
         d="m 241.4,120.42 a 10.14,10.14 0 0 1 -5.28,-1.41 l 1,-2 a 7.68,7.68 0 0 0 4.2,1.25 c 2.41,0 3.73,-1.25 3.73,-3.62 v -0.92 a 4.92,4.92 0 0 1 -4.15,2.17 5.55,5.55 0 0 1 0,-11.1 5.09,5.09 0 0 1 4.13,2 V 105 h 2.7 v 9.38 c 0.01,4.18 -2.27,6.04 -6.33,6.04 z m 0.22,-13.38 a 3.19,3.19 0 0 0 -3.35,3.26 3.22,3.22 0 0 0 3.35,3.28 3.28,3.28 0 1 0 0,-6.54 z"
         id="path922" />
      <path
         class="cls-blue"
         d="M 264.78,101.16 V 116.8 H 262 v -15.64 z"
         id="path924" />
      <path
         class="cls-blue"
         d="M 272.69,116.8 H 270 V 105 h 2.7 v 1.83 a 4.26,4.26 0 0 1 3.69,-2.07 c 2.66,0 4.2,1.78 4.2,4.53 v 7.51 h -2.7 v -6.7 c 0,-1.84 -0.92,-2.89 -2.53,-2.89 a 2.63,2.63 0 0 0 -2.66,2.93 z"
         id="path926" />
      <path
         class="cls-blue"
         d="m 294.08,116.8 v -2 a 4.73,4.73 0 0 1 -4,2.21 c -2.77,0 -5.48,-2.21 -5.48,-6.14 0,-3.93 2.66,-6.14 5.48,-6.14 a 4.89,4.89 0 0 1 4,2.07 v -6.34 h 2.7 v 16.34 z m -3.38,-9.7 c -1.85,0 -3.39,1.43 -3.39,3.8 a 3.5,3.5 0 0 0 3.39,3.8 3.82,3.82 0 0 0 0,-7.6 z"
         id="path928" />
      <path
         class="cls-blue"
         d="M 309.25,105 H 312 v 11.8 h -2.7 V 115 a 4.25,4.25 0 0 1 -3.69,2.07 c -2.65,0 -4.2,-1.78 -4.2,-4.53 V 105 h 2.71 v 6.7 c 0,1.84 0.91,2.89 2.52,2.89 a 2.63,2.63 0 0 0 2.66,-2.93 z"
         id="path930" />
      <path
         class="cls-blue"
         d="m 320.74,117 a 8.31,8.31 0 0 1 -5,-1.76 l 1.21,-1.84 a 6.63,6.63 0 0 0 3.86,1.46 c 1.17,0 1.84,-0.5 1.84,-1.28 v 0 c 0,-0.92 -1.25,-1.23 -2.64,-1.65 -1.74,-0.5 -3.69,-1.21 -3.69,-3.47 v 0 c 0,-2.24 1.86,-3.6 4.2,-3.6 a 8.24,8.24 0 0 1 4.34,1.34 l -1.07,1.92 a 6.87,6.87 0 0 0 -3.33,-1.11 c -1.05,0 -1.66,0.49 -1.66,1.18 v 0 c 0,0.85 1.28,1.21 2.66,1.66 1.72,0.53 3.67,1.32 3.67,3.44 v 0 c -0.01,2.5 -1.94,3.71 -4.39,3.71 z"
         id="path932" />
      <path
         class="cls-blue"
         d="m 332.25,113.11 a 1.29,1.29 0 0 0 1.45,1.48 3.59,3.59 0 0 0 1.67,-0.41 v 2.22 a 4.72,4.72 0 0 1 -2.43,0.6 c -2,0 -3.4,-0.87 -3.4,-3.46 v -6.21 h -1.49 V 105 h 1.49 v -3.24 h 2.71 V 105 h 3.17 v 2.33 h -3.17 z"
         id="path934" />
      <path
         class="cls-blue"
         d="m 342.19,116.8 h -2.7 V 105 h 2.7 v 2.66 a 4.19,4.19 0 0 1 4.18,-2.88 v 2.86 h -0.16 c -2.37,0 -4,1.54 -4,4.67 z"
         id="path936" />
      <path
         class="cls-blue"
         d="m 356.36,117.13 c -0.94,2.42 -2,3.31 -3.89,3.31 a 5.45,5.45 0 0 1 -2.79,-0.72 l 0.91,-2 a 3.32,3.32 0 0 0 1.59,0.45 c 0.76,0 1.23,-0.33 1.67,-1.36 L 348.94,105 h 2.88 l 3.35,8.76 3.06,-8.76 h 2.82 z"
         id="path938" />
      <path
         class="cls-blue"
         d="m 374.92,101.16 v 15.64 h -2.75 v -15.64 z"
         id="path940" />
      <path
         class="cls-blue"
         d="m 382.83,116.8 h -2.7 V 105 h 2.7 v 1.83 a 4.25,4.25 0 0 1 3.69,-2.07 c 2.65,0 4.2,1.78 4.2,4.53 v 7.51 H 388 v -6.7 c 0,-1.84 -0.91,-2.89 -2.52,-2.89 a 2.63,2.63 0 0 0 -2.66,2.93 z"
         id="path942" />
      <path
         class="cls-blue"
         d="m 404.21,116.8 v -2 a 4.72,4.72 0 0 1 -4,2.21 c -2.77,0 -5.47,-2.21 -5.47,-6.14 0,-3.93 2.66,-6.14 5.47,-6.14 a 4.89,4.89 0 0 1 4,2.07 v -6.34 h 2.7 v 16.34 z m -3.37,-9.7 c -1.86,0 -3.4,1.43 -3.4,3.8 a 3.51,3.51 0 0 0 3.4,3.8 3.82,3.82 0 0 0 0,-7.6 z"
         id="path944" />
      <path
         class="cls-blue"
         d="m 417.24,117.07 a 6.1,6.1 0 0 1 -6.25,-6.13 6.29,6.29 0 1 1 6.25,6.13 z m 0,-9.95 a 3.55,3.55 0 0 0 -3.55,3.78 3.65,3.65 0 0 0 3.6,3.82 3.55,3.55 0 0 0 3.57,-3.78 3.65,3.65 0 0 0 -3.62,-3.82 z"
         id="path946" />
      <path
         class="cls-blue"
         d="m 430.36,116.8 h -2.7 V 105 h 2.7 v 1.83 a 4.25,4.25 0 0 1 3.69,-2.07 c 2.65,0 4.2,1.78 4.2,4.53 v 7.51 h -2.71 v -6.7 c 0,-1.84 -0.91,-2.89 -2.52,-2.89 a 2.63,2.63 0 0 0 -2.66,2.93 z"
         id="path948" />
      <path
         class="cls-blue"
         d="m 448.3,114.85 a 4.31,4.31 0 0 0 3.2,-1.4 l 1.58,1.4 a 6.15,6.15 0 0 1 -10.88,-3.93 5.86,5.86 0 0 1 5.77,-6.16 c 3.75,0 5.65,2.95 5.65,6.36 a 6.42,6.42 0 0 1 -0.05,0.74 h -8.66 a 3.3,3.3 0 0 0 3.39,2.99 z m 2.64,-4.78 c -0.18,-1.74 -1.21,-3.1 -3,-3.1 -1.79,0 -2.82,1.27 -3.06,3.1 z"
         id="path950" />
      <path
         class="cls-blue"
         d="m 461.73,117 a 8.28,8.28 0 0 1 -5,-1.76 l 1.21,-1.84 a 6.61,6.61 0 0 0 3.86,1.46 c 1.16,0 1.83,-0.5 1.83,-1.28 v 0 c 0,-0.92 -1.25,-1.23 -2.63,-1.65 -1.75,-0.5 -3.69,-1.21 -3.69,-3.47 v 0 c 0,-2.24 1.85,-3.6 4.2,-3.6 a 8.23,8.23 0 0 1 4.33,1.34 l -1.07,1.92 a 6.84,6.84 0 0 0 -3.33,-1.11 c -1.05,0 -1.65,0.49 -1.65,1.18 v 0 c 0,0.85 1.27,1.21 2.66,1.66 1.72,0.53 3.66,1.32 3.66,3.44 v 0 c 0,2.5 -1.92,3.71 -4.38,3.71 z"
         id="path952" />
      <path
         class="cls-blue"
         d="m 470.25,103.19 v -2.57 h 2.9 v 2.57 z m 0.11,13.61 V 105 h 2.7 v 11.8 z"
         id="path954" />
      <path
         class="cls-blue"
         d="m 485.15,116.8 v -1.45 a 4.75,4.75 0 0 1 -3.82,1.69 c -2.23,0 -4.2,-1.27 -4.2,-3.64 v 0 c 0,-2.55 2,-3.8 4.78,-3.8 a 10,10 0 0 1 3.27,0.49 v -0.29 c 0,-1.63 -1,-2.52 -2.91,-2.52 a 8.29,8.29 0 0 0 -3.37,0.73 l -0.74,-2.16 a 10.14,10.14 0 0 1 4.49,-1 c 3.49,0 5.18,1.84 5.18,5 v 7 z m 0.07,-5 a 7.88,7.88 0 0 0 -2.7,-0.47 c -1.7,0 -2.71,0.7 -2.71,1.9 v 0 c 0,1.11 1,1.74 2.28,1.74 1.79,0 3.13,-1 3.13,-2.48 z"
         id="path956" />
    </g>
  </g>
</svg>
