<?xml version="1.0" encoding="UTF-8" standalone="no"?>
<!-- Generator: Adobe Illustrator 16.0.2, SVG Export Plug-In . SVG Version: 6.00 Build 0)  -->

<svg
   xmlns:dc="http://purl.org/dc/elements/1.1/"
   xmlns:cc="http://creativecommons.org/ns#"
   xmlns:rdf="http://www.w3.org/1999/02/22-rdf-syntax-ns#"
   xmlns:svg="http://www.w3.org/2000/svg"
   xmlns="http://www.w3.org/2000/svg"
   xmlns:sodipodi="http://sodipodi.sourceforge.net/DTD/sodipodi-0.dtd"
   xmlns:inkscape="http://www.inkscape.org/namespaces/inkscape"
   version="1.0"
   id="Layer_1"
   x="0px"
   y="0px"
   width="1002.0001"
   height="358.78049"
   viewBox="0 0 1002.0001 358.78049"
   enable-background="new 0 0 88 32"
   xml:space="preserve"
   inkscape:version="0.91 r13725"
   sodipodi:docname="pln.svg"><metadata
     id="metadata61887"><rdf:RDF><cc:Work
         rdf:about=""><dc:format>image/svg+xml</dc:format><dc:type
           rdf:resource="http://purl.org/dc/dcmitype/StillImage" /><dc:title></dc:title></cc:Work></rdf:RDF></metadata><defs
     id="defs61885" /><sodipodi:namedview
     pagecolor="#ffffff"
     bordercolor="#666666"
     borderopacity="1"
     objecttolerance="10"
     gridtolerance="10"
     guidetolerance="10"
     inkscape:pageopacity="0"
     inkscape:pageshadow="2"
     inkscape:window-width="1366"
     inkscape:window-height="705"
     id="namedview61883"
     showgrid="false"
     fit-margin-left="1"
     fit-margin-top="1"
     fit-margin-right="1"
     fit-margin-bottom="1"
     inkscape:zoom="3.9545455"
     inkscape:cx="44.858"
     inkscape:cy="16.648012"
     inkscape:window-x="-8"
     inkscape:window-y="-8"
     inkscape:window-maximized="1"
     inkscape:current-layer="Layer_1" /><g
     id="g61869"
     transform="matrix(11.400559,0,0,11.400559,-0.61887943,-3.0243972)"><path
       d="m 37.647,23.823 3.786,0 0,-4.786 3.724,0 c 3.007,0 5.04,-2.252 5.04,-5.37 0,-3.119 -2.033,-5.328 -5.04,-5.328 l -7.51,0 0,15.484 0,0 z m 36.061,0 3.785,0 -0.019,-9.061 6.245,9.061 4.138,0 0,-15.484 -3.785,0 0.008,9.441 -6.544,-9.441 -3.828,0 0,15.484 0,0 z m -17.596,0 11.187,0 0,-3.248 -7.4,0 0,-12.236 -3.786,0 0,15.484 -10e-4,0 z m -14.678,-8.034 0,-4.202 3.01,0 c 1.254,0 1.904,0.845 1.904,2.08 0,1.234 -0.65,2.122 -1.969,2.122 l -2.945,0 z"
       id="path61871"
       inkscape:connector-curvature="0"
       style="fill:#28a8e0" /><rect
       x="0.142"
       y="0.35299999"
       width="31.295"
       height="31.295"
       id="rect61873"
       style="fill:#f7e82e" /><path
       d="m 6.451,11.694 c 0.839,-0.463 2.014,-0.828 2.955,-0.828 1.797,0 2.213,0.828 3.096,0.828 0.883,0 1.79,-0.828 3.423,-0.828 1.486,0 2.271,0.828 3.591,0.828 1.323,0 1.048,-0.828 2.91,-0.828 1.853,0 2.701,0.828 2.701,0.828 l 0,2.111 c 0,0 -0.989,-0.881 -2.544,-0.902 -1.543,-0.018 -1.502,0.902 -3.063,0.902 -1.562,0 -1.687,-0.902 -3.521,-0.902 -1.833,0 -2.11,0.902 -3.526,0.902 -1.42,0 -1.686,-0.939 -3.165,-0.92 -1.479,0.018 -2.857,0.92 -2.857,0.92 l 0,-2.111 z"
       id="path61875"
       inkscape:connector-curvature="0"
       style="clip-rule:evenodd;fill:#28a8e0;fill-rule:evenodd" /><path
       d="M 6.451,16.617 C 7.29,16.153 8.465,15.79 9.406,15.79 c 1.797,0 2.213,0.827 3.096,0.827 0.883,0 1.79,-0.827 3.423,-0.827 1.486,0 2.271,0.827 3.591,0.827 1.323,0 1.048,-0.827 2.91,-0.827 1.853,0 2.701,0.827 2.701,0.827 l 0,2.112 c 0,0 -0.989,-0.887 -2.544,-0.903 -1.543,-0.015 -1.502,0.903 -3.063,0.903 -1.562,0 -1.687,-0.903 -3.521,-0.903 -1.833,0 -2.11,0.903 -3.526,0.903 -1.42,0 -1.686,-0.937 -3.165,-0.918 -1.479,0.015 -2.857,0.918 -2.857,0.918 l 0,-2.112 z"
       id="path61877"
       inkscape:connector-curvature="0"
       style="clip-rule:evenodd;fill:#28a8e0;fill-rule:evenodd" /><path
       d="m 6.451,21.536 c 0.839,-0.466 2.014,-0.828 2.955,-0.828 1.797,0 2.213,0.828 3.096,0.828 0.883,0 1.79,-0.828 3.423,-0.828 1.486,0 2.271,0.828 3.591,0.828 1.323,0 1.048,-0.828 2.91,-0.828 1.853,0 2.701,0.828 2.701,0.828 l 0,2.118 c 0,0 -0.989,-0.888 -2.544,-0.907 -1.543,-0.016 -1.502,0.907 -3.063,0.907 -1.562,0 -1.687,-0.907 -3.521,-0.907 -1.833,0 -2.11,0.907 -3.526,0.907 -1.42,0 -1.686,-0.94 -3.165,-0.923 -1.479,0.016 -2.857,0.923 -2.857,0.923 l 0,-2.118 z"
       id="path61879"
       inkscape:connector-curvature="0"
       style="clip-rule:evenodd;fill:#28a8e0;fill-rule:evenodd" /><polygon
       points="14.904,28.364 17.273,16.461 8.856,20.163 13.775,4.534 17.782,4.534 13.112,15.369 21.423,12.007 "
       id="polygon61881"
       style="clip-rule:evenodd;fill:#e62a2b;fill-rule:evenodd" /></g></svg>