<?xml version="1.0" encoding="UTF-8" standalone="no"?>
<!-- Created with Inkscape (http://www.inkscape.org/) -->

<svg
   version="1.1"
   id="svg2"
   width="666.25403"
   height="202.256"
   viewBox="0 0 666.25403 202.25601"
   xmlns="http://www.w3.org/2000/svg"
   xmlns:svg="http://www.w3.org/2000/svg">
  <defs
     id="defs6" />
  <g
     id="g10"
     transform="matrix(1.3333333,0,0,-1.3333333,0,1122.5197)">
    <g
       id="g12"
       transform="translate(156.66164,262.23988)">
      <g
         id="g1275"
         transform="translate(-204.31866,68.606938)">
        <g
           id="g4229"
           transform="translate(-0.1332811,0.06625847)">
          <path
             d="m 202.2389,476.4152 h 30.7993 c 17.5414,0 28.5024,-14.9176 28.5024,-28.0003 v -3.3818 c 0,-13.0827 -10.961,-28.0003 -28.5024,-28.0003 l -25.8055,-6e-4 v -11.3499 c 0,-6.5194 -5.3175,-11.8369 -11.8366,-11.8369 h -2.9648 c -1.1177,0 -2.029,0.9116 -2.029,2.0293 v 68.7039 c 0,6.5194 5.3172,11.8366 11.8366,11.8366 z m 42.471,-28.8456 c 0,5.8578 -4.9105,11.3442 -11.6147,11.3442 h -25.8625 v -24.3799 l 28.3989,3e-4 c 5.0134,0 9.0783,4.642 9.0783,9.6534 z m 297.7795,28.8456 h 2.9645 c 1.1177,0 2.0293,-0.9113 2.0293,-2.029 v -68.7039 c 0,-6.5194 -5.3175,-11.8369 -11.8369,-11.8369 h -2.9645 c -1.1177,0 -2.0293,0.9116 -2.0293,2.0293 v 68.7039 c 0,6.5194 5.3175,11.8366 11.8369,11.8366 z m -78.41,-1.9131 35.7659,-52.2555 v 42.332 c 0,6.5194 5.3172,11.8366 11.8366,11.8366 h 2.9647 c 1.1177,0 2.0291,-0.9113 2.0291,-2.029 v -68.7039 c 0,-6.5194 -5.3172,-11.8369 -11.8366,-11.8369 h -5.2509 c -1.4854,0 -2.7627,0.6681 -3.6102,1.8876 l -35.7166,51.389 v -41.4397 c 0,-6.5194 -5.3175,-11.8369 -11.8369,-11.8369 H 445.46 c -1.1177,0 -2.029,0.9116 -2.029,2.0293 v 68.7039 c 0,6.5194 5.3172,11.8366 11.8366,11.8366 h 5.1835 c 1.4961,0 2.783,-0.6783 3.6283,-1.9131 z m -85.621,-63.155 h 49.0501 c 1.1177,0 2.029,-0.9117 2.029,-2.0294 v -3.6354 c 0,-6.5194 -5.3175,-11.8369 -11.8366,-11.8369 H 363.657 c -1.1177,0 -2.0293,0.9116 -2.0293,2.0293 v 68.7039 c 0,6.5194 5.3175,11.8366 11.8369,11.8366 h 2.9644 c 1.1177,0 2.0294,-0.9113 2.0294,-2.029 z m -88.0135,34.495 h 52.1705 c 1.1177,0 2.0293,-0.9116 2.0293,-2.0293 v -13.443 c 0,-1.118 -0.9116,-2.0293 -2.0293,-2.0293 h -52.1705 v -16.9934 h 54.1998 v -5.6648 c 0,-6.5194 -5.3175,-11.8369 -11.8369,-11.8369 h -42.3629 -14.8014 c -1.1177,0 -2.0293,0.9116 -2.0293,2.0293 v 68.7039 c 0,6.5194 5.3175,11.8366 11.8369,11.8366 h 57.1643 c 1.1177,0 2.0293,-0.9113 2.0293,-2.029 v -15.4724 h -54.1998 z"
             style="fill:#2a3f8e;fill-opacity:1;fill-rule:evenodd;stroke:none"
             id="path14" />
          <path
             d="m 54.1191,472.6474 56.3419,-32.233 c 1.9477,-1.1141 3.0649,-3.0405 3.0649,-5.2841 0,-2.2433 -1.1172,-4.1698 -3.0649,-5.2838 L 75.4943,409.8421 v 26.3107 c 0,3.1161 -1.5517,5.7909 -4.256,7.3383 l -4.4461,2.5438 v -71.9578 c 0,-2.493 -1.241,-4.6332 -3.4053,-5.8711 l -15.5942,-8.9215 v 109.6937 c 0,1.5492 0.7662,2.8792 2.1064,3.6567 1.3405,0.7773 2.8755,0.7821 4.22,0.0125"
             style="fill:#7fbeea;fill-opacity:1;fill-rule:nonzero;stroke:none"
             id="path50" />
          <path
             d="m 47.7927,496.368 84.4639,-48.3214 c 4.7605,-2.7235 7.4911,-7.4318 7.4911,-12.9163 3e-4,-5.4845 -2.7306,-10.1928 -7.4911,-12.9161 L 75.4943,389.7405 v 8.4362 c 0,2.4928 1.2413,4.633 3.4049,5.8711 l 43.0427,24.6246 c 2.38,1.3618 3.7454,3.7157 3.7454,6.4579 0,2.7425 -1.3657,5.0967 -3.7459,6.4582 l -48.4098,27.6953 -22.3339,12.7775 c -2.164,1.2378 -3.405,3.378 -3.405,5.8708 z"
             style="fill:#4d7bc7;fill-opacity:1;fill-rule:nonzero;stroke:none"
             id="path52" />
          <path
             d="m 47.7927,510.9763 96.6572,-55.2977 c 7.5736,-4.3327 11.9179,-11.8233 11.9179,-20.5486 0,-8.7253 -4.3443,-16.2156 -11.9179,-20.5483 L 75.4943,375.1325 v 2.9429 c 0,2.4931 1.2413,4.6329 3.4049,5.8711 l 60.7329,34.7451 c 6.059,3.4659 9.5343,9.4584 9.5343,16.4387 0,6.9803 -3.4753,12.9728 -9.5343,16.439 l -88.4344,50.593 c -2.164,1.2382 -3.405,3.3783 -3.405,5.8711 z"
             style="fill:#2a3f8e;fill-opacity:1;fill-rule:nonzero;stroke:none"
             id="path54" />
        </g>
      </g>
    </g>
  </g>
</svg>
