<?xml version="1.0" encoding="UTF-8" ?>
<!DOCTYPE svg PUBLIC "-//W3C//DTD SVG 1.1//EN" "http://www.w3.org/Graphics/SVG/1.1/DTD/svg11.dtd">
<svg width="1600pt" height="495pt" viewBox="0 0 1600 495" version="1.1" xmlns="http://www.w3.org/2000/svg">
<path fill="#ff131e" opacity="1.00" d=" M 174.82 0.77 C 189.23 14.49 203.01 28.85 217.18 42.82 C 244.16 69.83 271.20 96.77 298.14 123.81 C 256.44 125.07 214.71 124.31 173.00 124.92 C 161.57 125.10 150.15 126.77 139.22 130.16 C 109.12 139.11 82.97 160.26 67.65 187.65 C 54.60 210.80 49.27 238.31 53.16 264.62 C 56.53 290.84 69.09 315.49 87.49 334.36 C 75.63 346.93 62.99 358.74 50.78 370.98 C 19.93 340.41 1.48 297.82 0.00 254.43 L 0.00 240.57 C 1.20 210.26 10.48 180.33 26.69 154.70 C 44.69 126.15 71.04 102.90 101.74 88.83 C 124.51 78.28 149.59 72.84 174.68 72.85 C 174.67 48.82 174.38 24.79 174.82 0.77 Z" />
<path fill="#323232" opacity="1.00" d=" M 374.80 78.78 C 410.78 78.59 446.77 78.48 482.75 78.84 C 482.68 194.85 482.67 310.86 482.75 426.87 C 446.77 427.06 410.78 426.93 374.79 426.93 C 374.50 368.63 374.75 310.31 374.67 252.00 C 374.76 194.26 374.49 136.52 374.80 78.78 Z" />
<path fill="#323232" opacity="1.00" d=" M 504.28 78.88 C 537.82 78.40 571.39 78.67 604.94 78.74 C 647.55 141.22 690.05 203.78 732.65 266.27 C 733.68 267.69 734.75 269.09 735.84 270.48 C 736.30 245.99 735.90 221.49 736.03 197.00 C 736.06 157.59 735.99 118.18 736.07 78.78 C 766.04 78.45 796.02 78.78 826.00 78.61 C 829.89 78.52 833.79 78.72 837.69 78.92 C 837.53 177.95 837.67 276.98 837.62 376.00 C 837.66 392.94 837.53 409.89 837.71 426.83 C 807.47 427.14 777.23 426.84 747.00 426.98 C 743.23 426.82 739.27 427.56 735.66 426.36 C 729.35 417.91 723.80 408.89 717.70 400.28 C 694.59 366.39 671.44 332.53 648.36 298.62 C 634.15 278.08 620.41 257.21 605.96 236.84 C 605.37 253.55 605.87 270.28 605.70 287.00 C 605.73 333.62 605.64 380.24 605.75 426.87 C 571.92 427.01 538.09 427.04 504.27 426.85 C 504.37 310.86 504.36 194.87 504.28 78.88 Z" />
<path fill="#323232" opacity="1.00" d=" M 860.90 78.78 C 896.68 78.55 932.48 78.56 968.27 78.78 C 968.57 122.52 968.39 166.27 968.35 210.02 C 970.36 207.82 972.38 205.62 974.34 203.37 C 1009.02 162.72 1043.92 122.24 1078.57 81.57 C 1079.93 79.98 1081.72 78.62 1083.94 78.70 C 1092.28 78.36 1100.65 78.81 1109.00 78.64 C 1147.37 78.79 1185.75 78.37 1224.11 78.85 C 1209.32 94.81 1193.87 110.13 1178.90 125.90 C 1151.70 153.94 1124.57 182.05 1097.41 210.12 C 1098.89 212.75 1100.38 215.40 1101.95 217.99 C 1142.84 284.37 1183.29 351.03 1224.28 417.35 C 1238.08 381.36 1251.42 345.19 1265.10 309.15 C 1293.44 233.52 1322.01 157.98 1350.28 82.34 C 1351.03 80.23 1352.40 78.20 1354.95 78.67 C 1391.65 78.58 1428.37 78.71 1465.07 78.61 C 1467.47 78.35 1469.70 79.07 1470.31 81.64 C 1506.94 179.03 1543.53 276.46 1580.17 373.85 C 1586.84 391.05 1592.71 408.57 1600.00 425.51 L 1600.00 427.01 C 1562.38 426.80 1524.75 427.16 1487.13 426.84 C 1481.41 407.83 1475.66 388.84 1469.85 369.87 C 1457.90 369.43 1445.95 369.78 1434.00 369.68 C 1405.29 369.72 1376.59 369.59 1347.89 369.73 C 1341.99 388.71 1336.71 407.88 1330.85 426.88 C 1303.57 427.07 1276.28 426.90 1249.00 426.95 C 1237.66 426.75 1226.33 427.54 1215.00 427.00 C 1175.73 426.82 1136.47 427.14 1097.21 426.85 C 1072.77 379.28 1048.55 331.60 1023.91 284.14 C 1006.16 302.33 988.92 321.02 971.11 339.14 C 969.22 340.90 968.20 343.35 968.35 345.94 C 968.37 372.93 968.59 399.93 968.26 426.93 C 932.48 426.98 896.69 426.98 860.90 426.93 C 860.64 411.62 860.87 396.31 860.80 381.00 C 860.86 280.26 860.66 179.52 860.90 78.78 M 1407.30 175.36 C 1401.06 196.34 1394.63 217.27 1388.23 238.20 C 1382.83 256.87 1376.60 275.29 1371.54 294.05 C 1396.77 294.24 1422.00 294.29 1447.23 294.02 C 1440.93 272.41 1434.07 250.97 1427.57 229.42 C 1421.36 209.89 1415.74 190.16 1409.37 170.68 C 1408.63 172.22 1407.88 173.76 1407.30 175.36 Z" />
<path fill="#323232" opacity="1.00" d=" M 262.16 161.12 C 274.36 148.92 286.56 136.70 299.02 124.76 C 313.05 138.34 324.22 154.74 332.71 172.28 C 346.32 200.33 351.90 232.10 349.17 263.13 C 346.22 298.78 331.74 333.33 308.59 360.57 C 292.13 380.22 271.17 396.04 247.91 406.79 C 225.13 417.25 200.08 422.73 175.02 422.83 C 174.94 446.88 174.83 470.95 175.09 495.00 L 174.42 495.00 C 161.06 480.90 147.04 467.44 133.38 453.62 C 107.87 428.14 82.41 402.59 56.85 377.15 C 55.09 375.32 53.41 373.41 51.75 371.49 C 80.16 371.30 108.58 370.99 137.00 371.03 C 150.68 370.67 164.37 370.63 178.06 370.59 C 217.10 369.99 255.02 349.09 276.68 316.65 C 293.92 291.44 301.13 259.58 296.41 229.40 C 292.71 203.71 280.28 179.61 262.16 161.12 Z" />
<path fill="#ff131e" opacity="1.00" d=" M 128.75 145.78 C 143.17 139.16 159.05 135.66 174.94 135.99 C 174.83 173.04 174.96 210.10 174.88 247.15 L 174.82 247.98 C 159.59 263.35 143.96 278.35 128.66 293.67 C 117.54 304.67 106.56 315.83 95.35 326.74 C 75.20 306.21 62.84 277.89 63.03 249.00 C 62.53 233.75 65.72 218.49 71.60 204.45 C 82.36 178.64 103.19 157.17 128.75 145.78 Z" />
<path fill="#323232" opacity="1.00" d=" M 254.20 169.01 C 281.95 195.90 293.27 238.15 283.39 275.43 C 275.66 306.54 253.69 333.69 224.96 347.89 C 209.47 355.74 192.16 359.62 174.83 359.86 C 174.41 325.91 174.81 291.95 174.63 258.00 C 174.61 254.66 174.64 251.31 174.82 247.98 L 174.88 247.15 C 180.14 243.02 184.56 237.97 189.36 233.35 C 211.02 211.94 232.35 190.21 254.20 169.01 Z" />
</svg>
