<?xml version="1.0" encoding="UTF-8" standalone="no"?>
<!-- Created with Inkscape (http://www.inkscape.org/) -->

<svg
   xmlns:dc="http://purl.org/dc/elements/1.1/"
   xmlns:cc="http://creativecommons.org/ns#"
   xmlns:rdf="http://www.w3.org/1999/02/22-rdf-syntax-ns#"
   xmlns:svg="http://www.w3.org/2000/svg"
   xmlns="http://www.w3.org/2000/svg"
   xmlns:sodipodi="http://sodipodi.sourceforge.net/DTD/sodipodi-0.dtd"
   xmlns:inkscape="http://www.inkscape.org/namespaces/inkscape"
   width="300"
   height="88.815903"
   viewBox="0 0 79.374998 23.499208"
   version="1.1"
   id="svg208"
   inkscape:version="0.92.4 (5da689c313, 2019-01-14)"
   sodipodi:docname="peruri.svg">
  <defs
     id="defs202">
    <clipPath
       clipPathUnits="userSpaceOnUse"
       id="clipPath34">
      <path
         d="m 42.662,247.68 h 149.595 v 43.58 H 42.662 Z"
         id="path32"
         inkscape:connector-curvature="0" />
    </clipPath>
  </defs>
  <sodipodi:namedview
     id="base"
     pagecolor="#ffffff"
     bordercolor="#666666"
     borderopacity="1.0"
     inkscape:pageopacity="0.0"
     inkscape:pageshadow="2"
     inkscape:zoom="1.979899"
     inkscape:cx="100.01935"
     inkscape:cy="47.571251"
     inkscape:document-units="mm"
     inkscape:current-layer="layer1"
     showgrid="false"
     fit-margin-top="1"
     fit-margin-right="1"
     fit-margin-bottom="1"
     fit-margin-left="1"
     units="px"
     inkscape:window-width="1366"
     inkscape:window-height="705"
     inkscape:window-x="-8"
     inkscape:window-y="-8"
     inkscape:window-maximized="1" />
  <metadata
     id="metadata205">
    <rdf:RDF>
      <cc:Work
         rdf:about="">
        <dc:format>image/svg+xml</dc:format>
        <dc:type
           rdf:resource="http://purl.org/dc/dcmitype/StillImage" />
        <dc:title></dc:title>
      </cc:Work>
    </rdf:RDF>
  </metadata>
  <g
     inkscape:label="Layer 1"
     inkscape:groupmode="layer"
     id="layer1"
     transform="translate(-41.016254,-133.28306)">
    <g
       id="g28"
       transform="matrix(0.52726165,0,0,-0.52726165,18.756927,287.11507)">
      <g
         id="g30"
         clip-path="url(#clipPath34)">
        <g
           id="g36"
           transform="translate(48.5262,274.218)">
          <path
             d="M 0,0 C -0.272,0.155 -0.569,0.253 -0.851,0.388 -1.023,0.471 -1.146,0.574 -1.194,0.76 -1.991,1.034 -2.791,1.302 -3.585,1.586 -3.751,1.646 -3.817,1.617 -3.869,1.454 -4.004,1.032 -4.143,0.61 -4.299,0.194 -4.36,0.03 -4.335,-0.039 -4.166,-0.096 c 1.189,-0.399 2.375,-0.804 3.559,-1.217 0.138,-0.048 0.194,-0.018 0.261,0.098 0.185,0.316 0.383,0.624 0.576,0.936 C 0.267,-0.092 0.109,-0.061 0,0 M 3.702,6.992 C 4.057,7.218 4.412,7.444 4.766,7.67 4.473,8.207 4.183,8.745 3.886,9.28 3.108,10.681 2.324,12.078 1.554,13.483 1.44,13.692 1.359,13.721 1.164,13.576 0.808,13.309 0.432,13.068 0.057,12.827 -0.087,12.735 -0.14,12.669 -0.024,12.498 1.224,10.666 2.462,8.828 3.702,6.992 M 1.673,1.919 c -0.844,0.611 -1.682,1.228 -2.53,1.832 -0.173,0.124 -0.199,0.204 -0.054,0.38 0.26,0.315 0.487,0.658 0.727,0.99 C -1.632,6.074 -3.081,7.024 -4.526,7.984 -4.678,8.085 -4.73,8.021 -4.805,7.903 -5.099,7.444 -5.384,6.979 -5.703,6.537 -5.865,6.313 -5.843,6.216 -5.607,6.063 -3.321,4.582 -1.04,3.092 1.23,1.588 1.532,1.388 1.747,1.339 1.967,1.654 1.895,1.772 1.78,1.841 1.673,1.919 m 5.54,10.284 c 0.067,-0.26 0.16,-0.275 0.389,-0.208 0.715,0.211 1.444,0.369 2.175,0.514 0.17,0.034 0.235,0.019 0.27,-0.162 0.312,-1.606 0.634,-3.21 0.952,-4.814 0.111,0.372 0.017,0.753 0.047,1.128 -0.085,0.334 0.018,0.676 -0.054,1.011 -0.09,0.695 -0.058,1.396 -0.109,2.093 -0.004,0.185 0.013,0.371 -0.005,0.554 -0.025,0.237 0.041,0.374 0.301,0.358 0.824,0.09 1.65,0.082 2.476,0.068 -0.023,1.359 -0.049,2.719 -0.065,4.079 -0.002,0.188 -0.077,0.218 -0.24,0.212 -0.568,-0.02 -1.136,-0.038 -1.704,-0.039 -0.205,0 -0.266,-0.061 -0.258,-0.268 0.03,-0.824 0.044,-1.649 0.062,-2.473 0.003,-0.153 0,-0.306 0,-0.459 -0.202,0.932 -0.346,1.864 -0.463,2.799 -0.035,0.278 -0.106,0.361 -0.407,0.315 C 9.182,16.696 7.799,16.415 6.432,16.046 6.209,15.986 6.216,15.894 6.265,15.715 6.589,14.546 6.913,13.378 7.213,12.203 m 7.039,-29.835 c -0.089,0.27 0.083,0.531 0.029,0.8 -0.028,0.183 -0.059,0.367 -0.114,0.544 -0.032,0.104 -0.039,0.255 -0.221,0.216 -0.519,-0.194 -1.044,-0.366 -1.58,-0.509 -0.569,-0.151 -1.158,-0.184 -1.727,-0.326 -0.085,-0.088 0.019,-0.204 -0.044,-0.295 -0.144,-1.642 -0.284,-3.285 -0.437,-4.926 -0.017,-0.184 0.008,-0.255 0.206,-0.265 0.367,-0.021 0.732,-0.095 1.098,-0.096 0.294,-10e-4 0.333,-0.117 0.33,-0.376 -0.016,-1.126 -0.005,-2.251 -0.016,-3.377 -0.002,-0.211 0.044,-0.29 0.272,-0.282 0.523,0.017 1.048,0.019 1.571,-0.003 0.271,-0.011 0.36,0.058 0.356,0.345 -0.014,1.147 0.001,2.295 0.002,3.443 0,0.153 -0.011,0.314 0.21,0.283 0.368,-0.051 0.339,0.162 0.323,0.42 -0.093,1.467 -0.174,2.936 -0.258,4.404 m 7.894,1.5 c -0.167,-0.023 -0.276,-0.141 -0.379,-0.253 -0.141,-0.152 -0.226,-0.173 -0.381,0.011 -0.645,0.763 -1.323,1.498 -1.963,2.266 -0.22,0.264 -0.383,0.302 -0.6,0.034 0.034,-0.07 0.062,-0.141 0.1,-0.208 0.992,-1.754 1.981,-3.509 2.982,-5.257 0.114,-0.199 0.113,-0.291 -0.103,-0.398 -0.349,-0.172 -0.694,-0.359 -1.016,-0.576 -0.237,-0.16 -0.322,-0.076 -0.441,0.134 -0.838,1.496 -1.686,2.986 -2.533,4.475 -0.06,0.104 -0.091,0.23 -0.206,0.296 -0.17,-0.091 -0.048,-0.206 -0.013,-0.299 0.274,-0.742 0.55,-1.484 0.834,-2.222 0.15,-0.388 0.138,-0.375 -0.255,-0.549 -0.321,-0.142 -0.698,-0.159 -0.967,-0.422 0.767,-2.028 1.539,-4.053 2.294,-6.085 0.099,-0.269 0.208,-0.298 0.453,-0.195 0.481,0.204 0.972,0.387 1.465,0.557 0.206,0.072 0.242,0.15 0.161,0.357 -0.333,0.849 -0.644,1.705 -0.964,2.559 -0.035,0.068 -0.013,0.147 -0.037,0.187 0.01,-0.036 0.044,-0.086 0.1,-0.121 0.426,-0.806 0.858,-1.608 1.27,-2.42 0.108,-0.213 0.179,-0.26 0.412,-0.136 1.237,0.661 2.435,1.385 3.593,2.174 0.216,0.148 0.261,0.236 0.095,0.473 -1.31,1.866 -2.602,3.744 -3.901,5.618 M 9.384,-0.073 C 8.958,-0.064 8.375,-0.145 7.802,-0.3 4.519,-1.184 2.517,-4.484 3.331,-7.668 c 0.916,-3.584 4.811,-5.606 8.385,-4.353 3.011,1.056 4.732,4.045 4.081,7.086 -0.601,2.806 -3.235,4.856 -6.413,4.862 m 25.069,-2.961 c -2.958,-0.381 -5.915,-0.768 -8.873,-1.153 -0.062,-0.052 -0.142,-0.053 -0.17,-0.06 0.245,-0.057 0.542,0 0.832,-0.051 1.225,-0.024 2.451,-0.06 3.677,-0.066 0.282,-0.001 0.332,-0.097 0.312,-0.345 -0.029,-0.355 -0.046,-0.714 -0.03,-1.069 0.012,-0.284 -0.057,-0.373 -0.365,-0.363 -1.548,0.048 -3.097,0.067 -4.646,0.096 -0.108,0.002 -0.216,0 -0.33,-0.054 0.805,-0.138 1.611,-0.277 2.416,-0.416 0.856,-0.148 1.71,-0.3 2.567,-0.437 0.202,-0.033 0.306,-0.079 0.222,-0.31 -0.068,-0.187 -0.007,-0.288 0.219,-0.337 1.272,-0.276 2.537,-0.578 3.808,-0.858 0.243,-0.054 0.315,-0.132 0.245,-0.39 -0.161,-0.59 -0.29,-1.189 -0.421,-1.786 -0.041,-0.188 -0.097,-0.243 -0.31,-0.187 -0.818,0.214 -1.643,0.398 -2.465,0.594 -0.106,0.024 -0.212,0.067 -0.39,0.016 0.297,-0.115 0.542,-0.211 0.789,-0.303 0.645,-0.24 1.289,-0.486 1.939,-0.715 0.193,-0.067 0.218,-0.14 0.152,-0.334 -1.058,-3.09 -2.704,-5.823 -4.92,-8.219 -0.126,-0.138 -0.19,-0.149 -0.334,-0.022 -1.759,1.56 -3.524,3.113 -5.289,4.667 0.017,0.246 0.209,0.386 0.352,0.547 0.141,0.159 0.162,0.28 -0.009,0.416 -0.744,0.589 -1.331,1.346 -2.064,1.947 -0.407,0.334 -0.407,0.423 -0.102,0.855 0.122,0.173 0.23,0.356 0.334,0.539 0.118,0.207 0.263,0.247 0.471,0.139 0.455,-0.236 0.924,-0.443 1.368,-0.7 0.425,-0.246 0.874,-0.443 1.308,-0.67 0.192,-0.101 0.313,-0.047 0.399,0.143 0.074,0.162 0.169,0.315 0.237,0.479 0.111,0.266 0.281,0.303 0.534,0.197 0.74,-0.307 1.485,-0.605 2.226,-0.912 0.354,-0.147 0.382,-0.142 0.522,0.199 0.118,0.289 0.239,0.576 0.363,0.862 0.093,0.213 0.039,0.32 -0.173,0.407 -0.741,0.307 -1.486,0.603 -2.227,0.91 -0.462,0.192 -0.478,0.221 -0.324,0.692 0.02,0.064 0.037,0.129 0.064,0.19 0.1,0.218 0.013,0.315 -0.201,0.388 -0.833,0.283 -1.68,0.524 -2.512,0.81 -0.105,0.036 -0.212,0.069 -0.317,0.107 -0.352,0.127 -0.384,0.172 -0.332,0.538 0.077,0.528 0.134,1.057 0.141,1.593 0.01,0.739 -0.083,1.467 -0.172,2.195 -0.017,0.143 -0.064,0.287 0.046,0.415 2.128,0.608 4.253,1.221 6.384,1.818 0.29,0.082 0.405,0.17 0.272,0.488 -0.132,0.316 -0.221,0.655 -0.283,0.993 -0.055,0.307 -0.184,0.314 -0.446,0.237 -1.461,-0.429 -2.928,-0.839 -4.393,-1.257 -0.107,-0.03 -0.211,-0.073 -0.325,-0.055 -0.004,0.165 0.14,0.187 0.243,0.232 0.772,0.344 1.535,0.712 2.313,1.045 0.24,0.103 0.29,0.207 0.175,0.452 -0.45,0.957 -0.88,1.925 -1.48,2.802 -0.154,0.223 -0.103,0.387 0.107,0.536 0.354,0.251 0.682,0.538 1.036,0.79 0.193,0.137 0.239,0.26 0.079,0.46 C 26.241,6.268 26.404,6.303 25.787,5.838 23.467,4.087 21.149,2.333 18.824,0.588 18.697,0.492 18.592,0.339 18.4,0.358 c -0.314,0.339 -0.628,0.676 -0.941,1.014 -0.029,0.15 0.071,0.254 0.138,0.365 1.24,2.038 2.481,4.075 3.734,6.106 0.138,0.225 0.126,0.34 -0.11,0.466 C 20.986,8.435 20.764,8.586 20.534,8.723 20.102,8.981 20.109,8.976 19.833,8.536 19.502,8.007 19.194,7.463 18.852,6.94 18.624,6.592 18.602,6.582 18.243,6.756 c -0.383,0.185 -0.781,0.33 -1.177,0.48 -0.384,0.145 -0.412,0.205 -0.314,0.593 0.172,0.681 0.346,1.362 0.535,2.038 0.059,0.216 0.072,0.412 -0.05,0.605 0.641,1.79 1.285,3.579 1.918,5.372 0.076,0.215 0.16,0.262 0.375,0.177 0.496,-0.196 0.998,-0.379 1.507,-0.541 0.245,-0.077 0.265,-0.182 0.182,-0.406 -0.303,-0.812 -0.584,-1.632 -0.874,-2.45 -0.024,-0.028 -0.03,-0.072 -0.014,-0.093 0.029,-0.036 0.053,0.015 0.08,0.024 0.401,0.791 0.81,1.578 1.199,2.375 0.099,0.202 0.178,0.253 0.39,0.137 0.485,-0.268 0.982,-0.517 1.484,-0.751 0.195,-0.09 0.193,-0.167 0.104,-0.34 -0.4,-0.779 -0.783,-1.566 -1.172,-2.35 -0.02,-0.068 -0.03,-0.138 -0.076,-0.221 -0.013,-0.017 0.029,0.005 0.029,0.014 -0.001,0.07 0.067,0.095 0.112,0.134 0.477,0.712 0.965,1.418 1.427,2.139 0.144,0.226 0.235,0.256 0.475,0.108 3.421,-2.119 5.995,-5.012 7.882,-8.544 C 32.594,4.642 32.601,4.647 31.982,4.31 31.337,3.959 30.695,3.604 30.051,3.252 30.017,3.197 29.978,3.147 29.919,3.147 c 0.058,0.008 0.132,0.005 0.201,0.037 0.808,0.312 1.618,0.618 2.421,0.943 0.205,0.082 0.287,0.055 0.362,-0.156 0.188,-0.523 0.393,-1.039 0.61,-1.551 0.081,-0.191 0.039,-0.257 -0.148,-0.328 -0.922,-0.351 -1.837,-0.718 -2.771,-1.086 0.126,-0.071 0.224,-0.014 0.324,0.011 0.84,0.214 1.683,0.419 2.518,0.65 0.234,0.065 0.318,0.043 0.383,-0.215 0.357,-1.392 0.63,-2.799 0.812,-4.224 0.021,-0.167 0.008,-0.238 -0.178,-0.262"
             style="fill:#0e50a0;fill-opacity:1;fill-rule:evenodd;stroke:none"
             id="path38"
             inkscape:connector-curvature="0" />
        </g>
        <g
           id="g40"
           transform="translate(52.8214,278.8782)">
          <path
             d="M 0,0 0.268,-0.322 C 0.107,-0.29 0.005,-0.195 -0.07,-0.069 -0.047,-0.046 -0.024,-0.023 0,0"
             style="fill:#a8cded;fill-opacity:1;fill-rule:evenodd;stroke:none"
             id="path42"
             inkscape:connector-curvature="0" />
        </g>
        <g
           id="g44"
           transform="translate(78.6461,277.4019)">
          <path
             d="m 0,0 c -0.107,-0.077 -0.22,-0.132 -0.382,-0.083 0.105,0.051 0.209,0.101 0.313,0.151 C -0.046,0.046 -0.023,0.023 0,0"
             style="fill:#c5c9e4;fill-opacity:1;fill-rule:evenodd;stroke:none"
             id="path46"
             inkscape:connector-curvature="0" />
        </g>
        <g
           id="g48"
           transform="translate(100.9091,275.1853)">
          <path
             d="M 0,0 C -0.343,1.263 -1.026,2.27 -2.38,2.645 -3.121,2.85 -3.875,2.839 -4.635,2.783 -4.851,2.767 -4.879,2.684 -4.878,2.498 c 0.007,-1.17 0.004,-2.34 0.004,-3.509 0,-1.17 0.006,-2.34 -0.005,-3.509 -0.003,-0.23 0.032,-0.35 0.299,-0.342 0.467,0.014 0.936,-0.026 1.402,0.003 0.892,0.058 1.732,0.297 2.305,1.035 C 0.005,-2.693 0.383,-1.411 0,0 M 4.282,2.277 C 6.244,-0.03 5.679,-3.683 3.148,-5.351 1.621,-6.357 -0.07,-6.782 -1.884,-6.779 c -0.869,0.002 -1.739,-0.011 -2.608,0.007 -0.289,0.006 -0.393,-0.05 -0.391,-0.373 0.015,-2.742 0.003,-5.484 0.016,-8.226 0.001,-0.299 -0.076,-0.366 -0.367,-0.363 -1.471,0.015 -2.943,0.015 -4.414,0 -0.288,-0.003 -0.371,0.06 -0.37,0.363 0.012,3.288 0.007,6.576 0.007,9.865 0,3.288 0.005,6.576 -0.006,9.865 -0.002,0.296 0.075,0.366 0.368,0.367 2.898,0.013 5.795,0.078 8.693,-0.032 C 1.127,4.615 2.923,3.876 4.282,2.277 M 76.305,0.141 C 75.942,1.52 75.127,2.472 73.663,2.737 72.901,2.875 72.132,2.813 71.364,2.775 71.141,2.764 71.088,2.693 71.09,2.482 c 0.009,-1.169 0.004,-2.339 0.004,-3.508 0,-1.192 -0.002,-2.384 0.003,-3.575 0,-0.103 -0.073,-0.276 0.139,-0.27 0.754,0.02 1.515,-0.086 2.262,0.1 2.065,0.517 3.368,2.781 2.807,4.912 m 7.807,-15.535 c 0.066,-0.089 0.129,-0.179 0.241,-0.333 h -0.322 c -1.65,0 -3.3,0.004 -4.95,-0.005 -0.213,-0.001 -0.34,0.063 -0.467,0.236 -2.031,2.765 -4.076,5.52 -6.1,8.291 -0.229,0.314 -0.455,0.447 -0.847,0.426 -0.594,-0.031 -0.596,-0.002 -0.596,-0.588 0,-2.664 -0.007,-5.328 0.009,-7.993 0.002,-0.334 -0.095,-0.395 -0.406,-0.391 -1.449,0.017 -2.898,0.013 -4.347,0.002 -0.232,-0.002 -0.301,0.06 -0.3,0.296 0.006,6.667 0.006,13.333 -0.001,20 0,0.241 0.073,0.293 0.3,0.291 2.875,-0.016 5.752,0.021 8.626,-0.084 1.476,-0.054 2.903,-0.291 4.191,-1.069 1.666,-1.006 2.633,-2.434 2.627,-4.43 -0.004,-1.467 -0.617,-2.642 -1.758,-3.551 -0.799,-0.636 -1.699,-1.099 -2.618,-1.527 -0.236,-0.11 -0.253,-0.182 -0.095,-0.394 2.277,-3.055 4.544,-6.117 6.813,-9.177 M 35.632,0.185 C 35.26,1.535 34.454,2.469 33.018,2.734 32.278,2.87 31.531,2.813 30.784,2.781 30.517,2.769 30.43,2.708 30.434,2.425 c 0.018,-1.159 0.009,-2.319 0.009,-3.478 0,-1.181 -0.003,-2.363 0.003,-3.545 10e-4,-0.1 -0.083,-0.278 0.13,-0.273 0.756,0.019 1.517,-0.086 2.264,0.102 2.078,0.523 3.381,2.82 2.792,4.954 m 0.829,-6.153 c 2.403,-3.242 4.795,-6.467 7.196,-9.706 -0.123,-0.085 -0.236,-0.051 -0.339,-0.052 -1.628,-0.002 -3.255,0.003 -4.884,-0.006 -0.223,-0.001 -0.359,0.066 -0.493,0.248 -2.024,2.757 -4.063,5.504 -6.079,8.266 -0.236,0.322 -0.472,0.46 -0.873,0.439 -0.583,-0.03 -0.585,-0.001 -0.585,-0.57 0,-2.676 -0.003,-5.351 0.007,-8.027 0,-0.279 -0.045,-0.38 -0.358,-0.376 -1.459,0.019 -2.92,0.015 -4.381,0.002 -0.25,-0.002 -0.313,0.063 -0.313,0.314 0.007,6.656 0.007,13.311 -0.001,19.967 0,0.259 0.075,0.31 0.316,0.309 2.865,-0.019 5.73,0.019 8.594,-0.085 1.394,-0.051 2.75,-0.255 3.991,-0.943 1.475,-0.82 2.52,-1.978 2.781,-3.703 0.275,-1.816 -0.292,-3.314 -1.752,-4.454 -0.761,-0.594 -1.617,-1.023 -2.474,-1.449 -0.11,-0.053 -0.219,-0.107 -0.353,-0.174 M 91.01,4.797 C 89.561,4.787 88.112,4.784 86.663,4.799 86.384,4.802 86.316,4.73 86.317,4.452 c 0.011,-3.31 0.007,-6.62 0.007,-9.93 0,-3.31 0.002,-6.619 -0.005,-9.929 -0.001,-0.248 0.044,-0.34 0.32,-0.337 1.46,0.015 2.92,0.014 4.38,10e-4 0.261,-0.002 0.329,0.067 0.329,0.328 -0.008,6.632 -0.008,13.262 0,19.893 0,0.28 -0.095,0.321 -0.338,0.319 M 22.391,-13.612 c -3.201,-0.011 -6.401,-0.006 -9.601,-0.01 -0.208,0 -0.342,-0.007 -0.341,0.285 0.013,2.532 0.011,5.063 0.003,7.594 -10e-4,0.224 0.066,0.275 0.279,0.272 0.858,-0.012 1.717,-0.005 2.576,-0.005 1.794,0 3.59,0.008 5.385,-0.007 0.287,-0.003 0.357,0.078 0.339,0.35 -0.025,0.367 -0.032,0.738 0.002,1.103 0.029,0.317 -0.097,0.356 -0.374,0.356 -2.631,-0.011 -5.263,-0.003 -7.894,-0.012 -0.245,-10e-4 -0.316,0.052 -0.315,0.308 0.012,2.03 0.011,4.059 0.001,6.088 -0.002,0.255 0.055,0.334 0.324,0.333 2.787,-0.011 5.575,-0.007 8.363,-0.007 0.457,0 0.915,0.008 1.372,-0.004 0.191,-0.004 0.251,0.059 0.245,0.248 -0.012,0.379 -0.022,0.76 0.002,1.137 0.019,0.295 -0.056,0.394 -0.376,0.394 C 17.519,4.799 12.658,4.8 7.796,4.81 7.491,4.81 7.408,4.735 7.409,4.426 7.42,1.136 7.416,-2.153 7.416,-5.442 c 0,-3.312 0.004,-6.623 -0.006,-9.935 -0.001,-0.284 0.054,-0.378 0.361,-0.375 1.527,0.018 3.055,0.009 4.583,0.009 3.356,0 6.712,0.002 10.068,-0.006 0.261,-10e-4 0.348,0.065 0.335,0.333 -0.021,0.479 -0.026,0.96 0.002,1.438 0.018,0.3 -0.076,0.367 -0.368,0.366 M 63.413,4.422 C 63.4,2.169 63.406,-0.083 63.406,-2.335 h -0.012 c 0,-2.107 0.033,-4.215 -0.008,-6.321 -0.068,-3.448 -1.917,-6.009 -5.215,-7.001 -3.123,-0.939 -6.286,-0.954 -9.308,0.424 -2.767,1.261 -4.193,3.559 -4.265,6.543 -0.107,4.402 -0.033,8.808 -0.043,13.212 -10e-4,0.227 0.074,0.275 0.285,0.274 1.495,-0.008 2.988,-0.012 4.482,0.003 0.279,0.002 0.349,-0.067 0.348,-0.347 -0.009,-4.193 -0.01,-8.385 -0.005,-12.577 0.002,-1.458 0.32,-2.836 1.181,-4.037 1.173,-1.635 2.799,-2.252 4.76,-1.99 2.07,0.276 3.46,1.422 4.153,3.395 0.295,0.838 0.402,1.709 0.403,2.595 10e-4,4.204 0.009,8.407 10e-4,12.611 0,0.306 0.077,0.389 0.383,0.381 0.825,-0.022 1.651,-0.026 2.475,0.002 0.339,0.012 0.394,-0.102 0.392,-0.41"
             style="fill:#0e50a0;fill-opacity:1;fill-rule:evenodd;stroke:none"
             id="path50"
             inkscape:connector-curvature="0" />
        </g>
        <g
           id="g52"
           transform="translate(59.4092,285.983)">
          <path
             d="M 0,0 C -0.012,0.206 -0.012,0.412 -0.038,0.615 -0.073,0.892 0.05,0.965 0.296,0.913 0.101,0.853 -0.003,0.75 0.025,0.518 0.047,0.35 0.067,0.17 0,0"
             style="fill:#56a1d8;fill-opacity:1;fill-rule:evenodd;stroke:none"
             id="path54"
             inkscape:connector-curvature="0" />
        </g>
        <g
           id="g56"
           transform="translate(59.5721,282.8792)">
          <path
             d="M 0,0 C -0.115,0.331 -0.05,0.673 -0.054,1.01 0.071,0.679 -0.026,0.337 0,0"
             style="fill:#56a1d8;fill-opacity:1;fill-rule:evenodd;stroke:none"
             id="path58"
             inkscape:connector-curvature="0" />
        </g>
        <g
           id="g60"
           transform="translate(60.0321,287.8596)">
          <path
             d="M 0,0 C 0,-0.122 0,-0.229 -0.001,-0.337 -0.129,-0.19 -0.129,-0.19 0,0"
             style="fill:#5870b2;fill-opacity:1;fill-rule:evenodd;stroke:none"
             id="path62"
             inkscape:connector-curvature="0" />
        </g>
        <g
           id="g64"
           transform="translate(49.7757,275.5224)">
          <path
             d="m 0,0 c -0.529,0.232 -1.053,0.475 -1.574,0.724 -0.155,0.075 -0.225,0.05 -0.299,-0.109 -0.182,-0.39 -0.319,-0.803 -0.57,-1.159 -0.11,-0.207 -0.024,-0.307 0.178,-0.387 0.299,-0.117 0.59,-0.257 0.877,-0.402 0.131,-0.067 0.312,-0.07 0.369,-0.25 0.328,0.446 0.669,0.884 1.057,1.281 C 0.167,-0.17 0.21,-0.092 0,0 m 7.363,-18.289 c 0.029,0.128 -0.079,0.096 -0.145,0.105 -0.484,0.07 -0.973,0.111 -1.447,0.237 -0.154,0.041 -0.198,-0.042 -0.243,-0.152 -0.223,-0.545 -0.442,-1.093 -0.672,-1.636 -0.067,-0.157 -0.042,-0.236 0.126,-0.299 0.405,-0.153 0.808,-0.316 1.204,-0.493 0.195,-0.087 0.265,-0.027 0.336,0.156 0.249,0.643 0.516,1.279 0.777,1.918 0.02,0.052 0.04,0.104 0.064,0.164 m 0.329,0.089 c -0.168,0.021 -0.201,-0.093 -0.232,-0.22 -0.28,-1.155 -0.559,-2.31 -0.846,-3.464 -0.04,-0.161 -0.02,-0.245 0.157,-0.284 0.434,-0.096 0.866,-0.2 1.295,-0.313 0.164,-0.043 0.234,-0.016 0.272,0.166 0.094,0.445 0.215,0.885 0.322,1.327 0.203,0.831 0.403,1.663 0.608,2.493 0.002,0.011 -0.048,0.138 0.056,0.05 0.014,-0.012 0.015,-0.04 0.022,-0.062 0.069,0.09 0.05,0.193 0.043,0.296 -0.565,0.052 -1.132,-0.062 -1.697,0.011 M 17,-18.729 c -0.206,0.609 -0.498,1.187 -0.643,1.817 -0.155,0.38 -0.371,0.728 -0.569,1.088 -0.085,0.155 -0.15,0.216 -0.319,0.079 -0.841,-0.683 -1.775,-1.211 -2.773,-1.631 0.248,-0.198 0.13,-0.519 0.257,-0.757 0.059,-0.152 -0.015,-0.336 0.113,-0.471 0.027,-0.13 0.052,-0.261 0.08,-0.392 0.309,-1.455 0.622,-2.91 0.924,-4.366 0.038,-0.188 0.082,-0.275 0.301,-0.219 0.408,0.105 0.823,0.185 1.238,0.262 0.203,0.038 0.243,0.137 0.2,0.326 -0.129,0.562 -0.245,1.127 -0.368,1.692 -0.15,0.687 -0.151,0.687 0.515,0.897 0.416,0.145 0.83,0.296 1.249,0.433 0.175,0.057 0.217,0.145 0.148,0.314 -0.125,0.306 -0.247,0.615 -0.353,0.928 m 1.419,15.76 c 0.101,-0.228 0.211,-0.248 0.434,-0.181 0.912,0.275 1.832,0.52 2.746,0.792 0.461,0.137 0.946,0.201 1.38,0.428 0.096,0.053 0.187,0.114 0.286,0.16 0.808,0.368 1.614,0.741 2.429,1.096 0.215,0.093 0.246,0.181 0.147,0.393 -0.476,1.016 -0.93,2.044 -1.57,2.973 -0.108,0.157 -0.086,0.239 0.068,0.348 0.38,0.271 0.74,0.57 1.12,0.841 0.211,0.15 0.331,0.277 0.092,0.509 C 25.425,4.512 25.328,4.668 25.239,4.821 25.133,5.005 25.051,5.038 24.864,4.888 24.291,4.431 23.696,4 23.11,3.558 21.124,2.057 19.137,0.555 17.15,-0.946 c 0.465,-0.648 0.943,-1.29 1.269,-2.023 M 8.651,3.764 C 8.01,5.521 7.367,7.277 6.724,9.034 6.677,9.164 6.662,9.324 6.441,9.23 5.745,8.935 5.044,8.647 4.343,8.361 4.21,8.308 4.184,8.242 4.246,8.11 4.382,7.817 4.498,7.515 4.634,7.222 4.696,7.086 4.684,7.008 4.539,6.933 4.194,6.754 3.857,6.556 3.517,6.366 3.084,6.262 2.764,5.981 2.453,5.688 2.342,5.496 2.147,5.394 1.972,5.286 1.739,5.142 1.781,5.027 1.922,4.846 2.305,4.356 2.672,3.853 3.046,3.355 3.08,3.307 3.06,3.237 3.121,3.182 3.063,3.223 3.025,3.263 2.976,3.287 2.2,4.05 1.419,4.807 0.655,5.581 0.468,5.772 0.362,5.767 0.189,5.574 -0.343,4.98 -0.891,4.401 -1.433,3.816 -1.781,3.576 -1.945,3.184 -2.215,2.88 -2.405,2.668 -2.348,2.528 -2.13,2.371 -1.455,1.882 -0.783,1.388 -0.106,0.903 0.162,0.712 0.397,0.466 0.718,0.35 2.88,2.189 5.38,3.127 8.22,3.153 8.871,3.16 8.873,3.156 8.651,3.764 m 19.106,-15.723 c -0.713,0.277 -1.419,0.576 -2.128,0.868 -0.629,0.26 -0.646,0.267 -0.403,0.913 0.104,0.276 0.023,0.348 -0.226,0.426 -0.995,0.312 -1.981,0.652 -2.974,0.969 -0.181,0.058 -0.231,0.112 -0.199,0.321 0.069,0.47 0.14,0.941 0.157,1.42 0.036,0.972 -0.12,1.926 -0.213,2.887 -0.804,-0.223 -1.607,-0.448 -2.411,-0.668 -0.16,-0.044 -0.203,-0.112 -0.158,-0.288 0.175,-0.692 0.275,-1.399 0.29,-2.112 0.048,-2.336 -0.607,-4.457 -1.957,-6.368 -0.185,-0.263 -0.57,-0.472 -0.512,-0.805 0.056,-0.321 0.316,-0.606 0.487,-0.905 0.016,-0.029 0.042,-0.052 0.064,-0.078 0.299,0.177 0.48,10e-4 0.654,-0.214 0.511,-0.632 1.048,-1.242 1.594,-1.842 0.558,-0.614 0.371,-0.61 1.06,-0.031 0.008,0.007 0.01,0.02 0.015,0.03 0.23,0.411 0.6,0.69 0.942,0.996 0.145,0.169 0.268,0.364 0.438,0.501 0.255,0.203 0.173,0.327 -0.024,0.51 -0.759,0.705 -1.502,1.429 -2.258,2.136 -0.141,0.132 -0.167,0.23 -0.047,0.39 0.173,0.231 0.345,0.469 0.475,0.725 0.107,0.211 0.205,0.192 0.382,0.098 0.707,-0.375 1.421,-0.736 2.135,-1.1 0.266,-0.135 0.566,-0.402 0.799,-0.355 0.275,0.056 0.328,0.486 0.462,0.759 0.104,0.208 0.194,0.256 0.419,0.158 0.785,-0.34 1.584,-0.645 2.369,-0.984 0.241,-0.104 0.368,-0.11 0.462,0.174 0.124,0.379 0.283,0.748 0.451,1.111 0.091,0.196 0.063,0.277 -0.145,0.358 M 16.209,0.068 C 14.958,1.184 13.563,2.057 11.959,2.573 11.12,2.843 10.267,3.043 9.385,3.096 9.096,3.112 8.903,3.18 8.919,3.538 8.93,3.79 8.877,4.048 8.82,4.296 8.767,4.526 8.863,4.598 9.064,4.617 9.175,4.628 9.284,4.65 9.393,4.669 9.885,4.755 9.873,4.755 9.876,5.241 9.878,5.578 9.805,5.901 9.75,6.228 9.785,6.609 9.666,6.985 9.7,7.366 9.697,7.703 9.745,8.043 9.66,8.378 9.538,9.058 9.578,9.747 9.546,10.433 c 0.029,0.162 0.039,0.326 0.025,0.488 -0.023,0.293 0.077,0.487 0.387,0.536 0.7,0.128 1.406,0.098 2.112,0.094 0.122,-10e-4 0.243,-0.015 0.335,-0.111 0.457,-0.094 0.922,-0.093 1.383,-0.126 0.253,-0.019 0.383,-0.061 0.315,-0.374 C 14.02,10.552 14.008,10.149 13.963,9.753 13.951,9.645 13.952,9.545 14.088,9.525 14.703,9.436 15.299,9.262 15.903,9.123 15.926,9.118 15.959,9.152 15.987,9.168 16.192,9.077 16.231,8.95 16.165,8.722 15.946,7.968 15.767,7.202 15.557,6.444 15.495,6.224 15.518,6.107 15.76,6.033 c 0.478,-0.145 0.945,-0.33 1.382,-0.574 0.176,-0.099 0.24,-0.042 0.329,0.107 0.399,0.668 0.819,1.325 1.212,1.998 0.114,0.195 0.201,0.212 0.381,0.093 0.334,-0.221 0.674,-0.435 1.025,-0.626 0.224,-0.121 0.26,-0.223 0.12,-0.45 C 19.219,4.982 18.244,3.374 17.263,1.77 16.915,1.201 16.56,0.635 16.209,0.068"
             style="fill:#21a0db;fill-opacity:1;fill-rule:evenodd;stroke:none"
             id="path66"
             inkscape:connector-curvature="0" />
        </g>
      </g>
    </g>
  </g>
</svg>
